<?xml version="1.0" encoding="utf-8"?>
<!-- Generator: Adobe Illustrator 23.0.3, SVG Export Plug-In . SVG Version: 6.00 Build 0)  -->
<svg version="1.1" id="レイヤー_1" xmlns="http://www.w3.org/2000/svg" xmlns:xlink="http://www.w3.org/1999/xlink" x="0px"
	 y="0px" viewBox="0 0 117 120" style="enable-background:new 0 0 117 120;" xml:space="preserve">
<title>アセット 3</title>
<g>
	<g id="svg2">
		<path id="path14" d="M20,111l3,9v-1h1l-1-3l2,1l-1-3l2,1l1-6h-6L20,111z M79,112v-7l5,1l1-7l8,1l2-4l4-8l1,2l-1-2l2-4l-1-4h-1
			l-8-11h3v-3h1l3-1v1l3-2l-2-4l3-4l-1-4l2-3l-3-3l2-3v-3l-4-1l1-2h6l-3-1l2-1v-1l-3,1l-1-1l2-3l-3,2l2,2h-5l1-3l-2-3h-2l1-2h-3l2-4
			l6-7l11-6l2,2l1-2l4-2l-3-6l-1-2l-9,1l-4,3l-4,1l-2,6h-7l-1,7l-3,1l-5,4l-15,1l2-5l-4,1l-1-3h-2l2-3V9l-1,1l-7,3l-1-2h-2l-2,3
			l-7,3l-4,2l-1-3h-6l-1,4l1,3l3,2l-2,3l2,1l2-3l4,2l-6,9l-3,1l-4,4l-3,4l-4,5v2l1,2h-2l-6-1v-3l-4-2l-2,4v3l3,1v3H4v8l1,2l-2,1v2H1
			l-1,6l3,8l5,2l13,15h2l-1,3h2v1l5-1l1-5h-3v-5l2-1l-1,1v3l3,1l-1-2l1-3l1,3l2-4l-1-6l2,3l3-2l5,2v5h2l-2,1v2l-2,1v-2l-1,4l8-1h5
			l1,4l4-2l-1,2l2,1v4l2,1v1l3-3l3,5l4-2l3,4l-1,1l2-2h3L79,112z M32,112h3l2-2l2-10h-3l-2,2L32,112z"/>
	</g>
</g>
</svg>
